<svg x="0" y="0" width="300" height="300" version="1.1" xmlns="http://www.w3.org/2000/svg" xmlns:xlink="http://www.w3.org/1999/xlink"><g data-paper-data="{&quot;description&quot;:&quot;Logo for Webcomm\n================\n\nThis logo was generated by MarkMaker and is composed of elements designed by others.\n\nThe font is Vollkorn Italic designed by Friedrich Althausen and released under the OFL license via Google Fonts: https://www.google.com/fonts/specimen/Vollkorn. The font includes this copyright statement: Copyright (c) 2010, Friedrich Althausen (http://friedrichalthausen.de post@friedrichalthausen.de). All rights reserved. This Font Software is licensed under the SIL Open Font License, Version 1.1. This license is available with a FAQ at\n\nMarkMaker uses semantic data from the Princeton University WordNet database http://wordnet.princeton.edu and font descriptions from Google Fonts https://www.google.com/fonts.\n\nThis design is inspired by designs that past users of MarkMaker have liked. As a result, it may be visually similar to past or future designs generated by the system. There is no guarantee that it is unique, original, or suitable in any way for use as a logo.\n\n&quot;}" fill="none" stroke="none" stroke-width="none" stroke-linecap="butt" stroke-linejoin="miter" stroke-miterlimit="10" stroke-dasharray="" stroke-dashoffset="0" font-family="sans-serif" font-weight="normal" font-size="12" text-anchor="start" mix-blend-mode="normal"><path d="M6,171.78384l0,-43.56768l55.543,0l0,43.56768z" fill="none" stroke="#646a3b" stroke-width="0.42"></path><g data-paper-data="{&quot;elementType&quot;:&quot;logo&quot;}" fill="#646a3b" stroke-width="1"><g data-paper-data="{&quot;elementType&quot;:&quot;text&quot;}"><g data-paper-data="{&quot;baseline&quot;:71,&quot;elementType&quot;:&quot;row&quot;}"><g data-paper-data="{&quot;baselineProportion&quot;:0.9874826147426982,&quot;fontSize&quot;:100,&quot;baseline&quot;:71,&quot;elementType&quot;:&quot;word&quot;}"><path d="M133.6616,134.46722c0.79533,0 1.59066,-0.00795 2.38599,-0.02386c0.79533,-0.01591 1.51113,-0.05567 2.14739,-0.1193c0,0.69989 -0.14316,1.38387 -0.42948,2.05195c-0.38176,0.15907 -0.73966,0.3738 -1.07369,0.64422c-0.33404,0.27041 -0.67603,0.66808 -1.02597,1.19299c-0.34994,0.52492 -0.7317,1.2089 -1.14527,2.05195c-0.41357,0.84305 -0.90668,1.93265 -1.47931,3.2688c-1.6861,3.88121 -3.41196,7.74651 -5.17759,11.5959c-1.76563,3.84939 -3.65056,7.71469 -5.65479,11.5959c-0.28632,0.15907 -0.60445,0.25451 -0.9544,0.28632c-0.34994,0.03181 -0.68398,0.01591 -1.00212,-0.04772c-0.28632,-1.9406 -0.6124,-3.99255 -0.97826,-6.15585c-0.36585,-2.1633 -0.76352,-4.3425 -1.19299,-6.53761c-0.42948,-2.19511 -0.89077,-4.37431 -1.38387,-6.53761c-0.4931,-2.1633 -0.99416,-4.23115 -1.50317,-6.20357c-1.9406,4.26297 -3.97665,8.51002 -6.10813,12.74118c-2.13148,4.23115 -4.29478,8.38277 -6.48989,12.45486c-0.25451,0.15907 -0.57264,0.26246 -0.9544,0.31018c-0.38176,0.04772 -0.74761,0.03977 -1.09755,-0.02386c-0.7317,-4.99467 -1.4475,-9.61553 -2.14739,-13.86259c-0.69989,-4.24706 -1.36797,-8.13622 -2.00423,-11.66748c-0.19088,-1.08165 -0.3579,-1.9406 -0.50106,-2.57687c-0.14316,-0.63626 -0.30223,-1.12141 -0.4772,-1.45545c-0.17497,-0.33404 -0.3738,-0.57264 -0.5965,-0.7158c-0.22269,-0.14316 -0.50901,-0.27837 -0.85896,-0.40562c-0.19088,-0.60445 -0.2386,-1.27253 -0.14316,-2.00423c1.24071,0.06363 2.25874,0.10339 3.05406,0.1193c0.79533,0.01591 1.54294,0.02386 2.24283,0.02386c0.79533,0 1.69405,-0.00795 2.69617,-0.02386c1.00212,-0.01591 1.93265,-0.05567 2.79161,-0.1193c0,0.34994 -0.01591,0.69989 -0.04772,1.04983c-0.03181,0.34994 -0.12725,0.69989 -0.28632,1.04983c-0.89077,0.15907 -1.59066,0.33404 -2.09967,0.52492c-0.50901,0.19088 -0.86691,0.4772 -1.07369,0.85896c-0.20679,0.38176 -0.30223,0.87486 -0.28632,1.47931c0.01591,0.60445 0.10339,1.39978 0.26246,2.38599c0.22269,1.30434 0.46129,2.70412 0.7158,4.19934c0.25451,1.49522 0.50106,3.0143 0.73966,4.55724c0.2386,1.54294 0.4772,3.10178 0.7158,4.67654c0.2386,1.57475 0.46924,3.09383 0.69194,4.55724c2.13148,-4.13571 4.20729,-8.30324 6.22743,-12.50258c2.02014,-4.19934 4.03232,-8.4623 6.03655,-12.7889c0.54082,-0.25451 1.22481,-0.33404 2.05195,-0.2386c0.50901,1.90879 1.01007,3.90507 1.50317,5.98883c0.4931,2.08376 0.96235,4.19934 1.40773,6.34673c0.44538,2.14739 0.86691,4.29478 1.26457,6.44217c0.39766,2.14739 0.75556,4.23911 1.07369,6.27515c1.39978,-2.73593 2.71207,-5.44801 3.93688,-8.13622c1.22481,-2.68821 2.39394,-5.40029 3.5074,-8.13622c0.50901,-1.24071 0.86691,-2.24283 1.07369,-3.00635c0.20679,-0.76352 0.25451,-1.37592 0.14316,-1.83721c-0.11135,-0.46129 -0.38971,-0.81124 -0.8351,-1.04983c-0.44538,-0.2386 -1.08165,-0.45334 -1.90879,-0.64422c-0.12725,-0.63626 -0.14316,-1.32025 -0.04772,-2.05195c0.63626,0.06363 1.30434,0.10339 2.00423,0.1193c0.69989,0.01591 1.46341,0.02386 2.29055,0.02386z" data-paper-data="{&quot;elementType&quot;:&quot;letter&quot;,&quot;baseline&quot;:68.38181818181818,&quot;baselineProportion&quot;:0.9896624313961355,&quot;fontSize&quot;:100}"></path><path d="M145.9733,144.44065c0.9544,0 1.74972,0.15111 2.38599,0.45334c0.63626,0.30223 1.12141,0.69989 1.45545,1.19299c0.33404,0.4931 0.54082,1.05779 0.62036,1.69405c0.07953,0.63626 0.05567,1.28843 -0.07158,1.95651c-0.19088,0.98621 -0.68398,1.89288 -1.47931,2.72003c-0.79533,0.82714 -1.71791,1.54294 -2.76775,2.14739c-1.04983,0.60445 -2.1633,1.08165 -3.34038,1.43159c-1.17709,0.34994 -2.25874,0.54082 -3.24494,0.57264c-0.09544,0.82714 -0.13521,1.65429 -0.1193,2.48143c0.01591,0.82714 0.1193,1.57475 0.31018,2.24283c0.19088,0.66808 0.4931,1.2089 0.90668,1.62247c0.41357,0.41357 0.98621,0.62036 1.71791,0.62036c0.69989,0 1.49522,-0.21474 2.38599,-0.64422c0.89077,-0.42948 1.6861,-1.05779 2.38599,-1.88493c0.4772,0.34994 0.81124,0.81124 1.00212,1.38387c-0.44538,0.57264 -0.97826,1.14527 -1.59861,1.71791c-0.62036,0.57264 -1.28843,1.08165 -2.00423,1.52703c-0.7158,0.44538 -1.45545,0.80328 -2.21897,1.07369c-0.76352,0.27041 -1.52703,0.40562 -2.29055,0.40562c-1.33615,0 -2.37803,-0.32609 -3.12564,-0.97826c-0.74761,-0.65217 -1.28048,-1.50317 -1.59861,-2.55301c-0.31813,-1.04983 -0.45334,-2.22692 -0.40562,-3.53126c0.04772,-1.30434 0.19883,-2.60868 0.45334,-3.91302c0.34994,-1.84516 0.90668,-3.49945 1.67019,-4.96286c0.76352,-1.46341 1.63043,-2.69617 2.60073,-3.69828c0.9703,-1.00212 2.01218,-1.76563 3.12564,-2.29055c1.11346,-0.52492 2.19511,-0.78738 3.24494,-0.78738 M139.72201,154.84356c0.79533,-0.03181 1.57475,-0.15111 2.33827,-0.3579c0.76352,-0.20679 1.45545,-0.50106 2.07581,-0.88282c0.62036,-0.38176 1.13732,-0.84305 1.55089,-1.38387c0.41357,-0.54082 0.68398,-1.16118 0.81124,-1.86107c0.06363,-0.38176 0.07953,-0.76352 0.04772,-1.14527c-0.03181,-0.38176 -0.13521,-0.73966 -0.31018,-1.07369c-0.17497,-0.33404 -0.41357,-0.60445 -0.7158,-0.81124c-0.30223,-0.20679 -0.67603,-0.31018 -1.12141,-0.31018c-0.92258,0 -1.8054,0.60445 -2.64845,1.81335c-0.84305,1.2089 -1.45545,2.86319 -1.83721,4.96286l-0.19088,1.04983z" data-paper-data="{&quot;elementType&quot;:&quot;letter&quot;,&quot;baseline&quot;:46.7,&quot;baselineProportion&quot;:0.9810924369747898,&quot;fontSize&quot;:100}"></path><path d="M158.47587,141.24342c0.19088,-1.11346 0.31813,-1.98037 0.38176,-2.60073c0.06363,-0.62036 0.00795,-1.08165 -0.16702,-1.38387c-0.17497,-0.30223 -0.46924,-0.48515 -0.88282,-0.54878c-0.41357,-0.06363 -1.00212,-0.09544 -1.76563,-0.09544c-0.06363,-0.7317 0.03181,-1.33615 0.28632,-1.81335c1.11346,-0.15907 2.23488,-0.41357 3.36424,-0.76352c1.12937,-0.34994 2.15534,-0.74761 3.07792,-1.19299c0.98621,0.31813 1.32025,1.33615 1.00212,3.05406l-1.86107,10.45063c-0.22269,1.2089 -0.48515,2.34622 -0.78738,3.41196c-0.30223,1.06574 -0.69194,2.26669 -1.16913,3.60284l0.09544,0c0.38176,-0.9544 0.89872,-1.94856 1.55089,-2.98249c0.65217,-1.03393 1.39183,-1.99628 2.21897,-2.88705c0.82714,-0.89077 1.70996,-1.62247 2.64845,-2.19511c0.93849,-0.57264 1.91674,-0.85896 2.93477,-0.85896c1.59066,0 2.72003,0.79533 3.3881,2.38599c0.66808,1.59066 0.65217,4.15162 -0.04772,7.68288c-0.38176,1.84516 -0.9703,3.53922 -1.76563,5.08215c-0.79533,1.54294 -1.75768,2.87909 -2.88705,4.00846c-1.12937,1.12937 -2.39394,2.00423 -3.79372,2.62459c-1.39978,0.62036 -2.87909,0.93054 -4.43794,0.93054c-1.55885,0 -2.84728,-0.19088 -3.8653,-0.57264c-1.01802,-0.38176 -1.9247,-0.98621 -2.72003,-1.81335c0.22269,-0.31813 0.44538,-0.77147 0.66808,-1.36001c0.22269,-0.58854 0.44538,-1.25662 0.66808,-2.00423c0.22269,-0.74761 0.43743,-1.55089 0.64422,-2.40985c0.20679,-0.85896 0.38971,-1.73382 0.54878,-2.62459l2.67231,-15.12716 M158.23728,164.14891c0.44538,0.25451 0.89872,0.41357 1.36001,0.4772c0.46129,0.06363 0.96235,0.09544 1.50317,0.09544c0.98621,0 1.86107,-0.19883 2.62459,-0.5965c0.76352,-0.39766 1.43159,-0.94644 2.00423,-1.64633c0.57264,-0.69989 1.04983,-1.54294 1.43159,-2.52915c0.38176,-0.98621 0.69989,-2.06786 0.9544,-3.24494c0.57264,-2.70412 0.72375,-4.77993 0.45334,-6.22743c-0.27041,-1.4475 -0.88282,-2.17125 -1.83721,-2.17125c-0.41357,0 -0.96235,0.28632 -1.64633,0.85896c-0.68398,0.57264 -1.39978,1.39978 -2.14739,2.48143c-0.74761,1.08165 -1.47136,2.40189 -2.17125,3.96074c-0.69989,1.55885 -1.28843,3.32448 -1.76563,5.29689l-0.76352,3.24494z" data-paper-data="{&quot;elementType&quot;:&quot;letter&quot;,&quot;baseline&quot;:71,&quot;baselineProportion&quot;:0.9874826147426982,&quot;fontSize&quot;:100}"></path><path d="M182.52663,167.15525c-1.36797,0 -2.42575,-0.33404 -3.17336,-1.00212c-0.74761,-0.66808 -1.27253,-1.53499 -1.57475,-2.60073c-0.30223,-1.06574 -0.42152,-2.27464 -0.3579,-3.6267c0.06363,-1.35206 0.22269,-2.71207 0.4772,-4.08004c0.28632,-1.46341 0.75556,-2.87909 1.40773,-4.24706c0.65217,-1.36797 1.45545,-2.58482 2.40985,-3.65056c0.9544,-1.06574 2.044,-1.91674 3.2688,-2.55301c1.22481,-0.63626 2.56891,-0.9544 4.03232,-0.9544c0.92258,0 1.65429,0.07953 2.19511,0.2386c0.54082,0.15907 1.06574,0.41357 1.57475,0.76352c-0.7317,1.6861 -1.17709,3.45173 -1.33615,5.29689c-0.25451,0.12725 -0.56468,0.22269 -0.93054,0.28632c-0.36585,0.06363 -0.73966,0.09544 -1.12141,0.09544c0,-1.52703 -0.21474,-2.60073 -0.64422,-3.22108c-0.42948,-0.62036 -1.10551,-0.93054 -2.02809,-0.93054c-0.4772,0 -0.93054,0.16702 -1.36001,0.50106c-0.42948,0.33404 -0.8351,0.79533 -1.21685,1.38387c-0.38176,0.58854 -0.7158,1.27253 -1.00212,2.05195c-0.28632,0.77942 -0.50901,1.59861 -0.66808,2.45757c-0.25451,1.27253 -0.42948,2.52119 -0.52492,3.746c-0.09544,1.22481 -0.07953,2.31441 0.04772,3.2688c0.12725,0.9544 0.40562,1.72586 0.8351,2.31441c0.42948,0.58854 1.04188,0.88282 1.83721,0.88282c0.92258,0 1.8213,-0.24655 2.69617,-0.73966c0.87486,-0.4931 1.61452,-1.07369 2.21897,-1.74177c0.41357,0.28632 0.74761,0.7317 1.00212,1.33615c-0.57264,0.7317 -1.20095,1.38387 -1.88493,1.95651c-0.68398,0.57264 -1.38387,1.06574 -2.09967,1.47931c-0.7158,0.41357 -1.42364,0.7317 -2.12353,0.9544c-0.69989,0.22269 -1.35206,0.33404 -1.95651,0.33404z" data-paper-data="{&quot;elementType&quot;:&quot;letter&quot;,&quot;baseline&quot;:46.7,&quot;baselineProportion&quot;:0.9810924369747898,&quot;fontSize&quot;:100}"></path><path d="M208.96338,144.44065c1.36797,0 2.56891,0.26246 3.60284,0.78738c1.03393,0.52492 1.86107,1.28048 2.48143,2.26669c0.62036,0.98621 1.01802,2.1633 1.19299,3.53126c0.17497,1.36797 0.10339,2.87909 -0.21474,4.53338c-0.31813,1.74972 -0.8351,3.33243 -1.55089,4.74812c-0.7158,1.41569 -1.57475,2.63254 -2.57687,3.65056c-1.00212,1.01802 -2.13148,1.8054 -3.3881,2.36213c-1.25662,0.55673 -2.58482,0.8351 -3.9846,0.8351c-1.36797,0 -2.55301,-0.25451 -3.55512,-0.76352c-1.00212,-0.50901 -1.81335,-1.23276 -2.43371,-2.17125c-0.62036,-0.93849 -1.01802,-2.06786 -1.19299,-3.3881c-0.17497,-1.32025 -0.10339,-2.7757 0.21474,-4.36636c0.34994,-1.81335 0.88282,-3.45968 1.59861,-4.939c0.7158,-1.47931 1.57475,-2.74389 2.57687,-3.79372c1.00212,-1.04983 2.11558,-1.86107 3.34038,-2.43371c1.22481,-0.57264 2.52119,-0.85896 3.88916,-0.85896 M208.34303,146.77892c-0.7317,0 -1.42364,0.21474 -2.07581,0.64422c-0.65217,0.42948 -1.26457,1.04188 -1.83721,1.83721c-0.57264,0.79533 -1.07369,1.74972 -1.50317,2.86319c-0.42948,1.11346 -0.77147,2.35417 -1.02597,3.72214c-0.54082,2.73593 -0.54082,4.93104 0,6.58533c0.54082,1.65429 1.52703,2.48143 2.95863,2.48143c0.7317,0 1.43955,-0.21474 2.12353,-0.64422c0.68398,-0.42948 1.31229,-1.03393 1.88493,-1.81335c0.57264,-0.77942 1.08165,-1.70996 1.52703,-2.79161c0.44538,-1.08165 0.79533,-2.29055 1.04983,-3.6267c0.50901,-2.76775 0.48515,-5.00262 -0.07158,-6.70463c-0.55673,-1.702 -1.5668,-2.55301 -3.0302,-2.55301z" data-paper-data="{&quot;elementType&quot;:&quot;letter&quot;,&quot;baseline&quot;:46.7,&quot;baselineProportion&quot;:0.9810924369747898,&quot;fontSize&quot;:100}"></path><path d="M224.04283,152.83933c0.19088,-1.11346 0.31813,-1.98037 0.38176,-2.60073c0.06363,-0.62036 0.00795,-1.08165 -0.16702,-1.38387c-0.17497,-0.30223 -0.4772,-0.48515 -0.90668,-0.54878c-0.42948,-0.06363 -1.02597,-0.09544 -1.78949,-0.09544c0,-0.12725 0.00795,-0.39766 0.02386,-0.81124c0.01591,-0.41357 0.10339,-0.74761 0.26246,-1.00212c0.38176,-0.03181 0.86691,-0.1193 1.45545,-0.26246c0.58854,-0.14316 1.19299,-0.31018 1.81335,-0.50106c0.62036,-0.19088 1.2089,-0.38971 1.76563,-0.5965c0.55673,-0.20679 1.01007,-0.40562 1.36001,-0.5965c0.9544,0.31813 1.28843,1.35206 1.00212,3.10178c-0.25451,1.36797 -0.51696,2.49733 -0.78738,3.3881c-0.27041,0.89077 -0.58059,1.73382 -0.93054,2.52915l0.04772,0l0.7158,-1.57475c0.34994,-0.79533 0.88282,-1.63043 1.59861,-2.50529c0.7158,-0.87486 1.51113,-1.67814 2.38599,-2.40985c0.87486,-0.7317 1.79744,-1.33615 2.76775,-1.81335c0.9703,-0.4772 1.88493,-0.7158 2.74389,-0.7158c0.41357,0 0.84305,0.08749 1.28843,0.26246c0.44538,0.17497 0.84305,0.4772 1.19299,0.90668c0.34994,0.42948 0.60445,0.99416 0.76352,1.69405c0.15907,0.69989 0.14316,1.57475 -0.04772,2.62459c-0.12725,0.63626 -0.27041,1.23276 -0.42948,1.78949c-0.15907,0.55673 -0.36585,1.13732 -0.62036,1.74177l0.04772,0l0.7158,-1.57475c0.34994,-0.76352 0.88282,-1.5668 1.59861,-2.40985c0.7158,-0.84305 1.51908,-1.62247 2.40985,-2.33827c0.89077,-0.7158 1.8213,-1.30434 2.79161,-1.76563c0.9703,-0.46129 1.86902,-0.69194 2.69617,-0.69194c0.85896,0 1.54294,0.22269 2.05195,0.66808c0.50901,0.44538 0.86691,1.06574 1.07369,1.86107c0.20679,0.79533 0.27041,1.75768 0.19088,2.88705c-0.07953,1.12937 -0.29427,2.37803 -0.64422,3.746l-1.43159,5.58321c-0.25451,0.98621 -0.44538,1.77358 -0.57264,2.36213c-0.12725,0.58854 -0.19088,1.03393 -0.19088,1.33615c0,0.30223 0.07158,0.50106 0.21474,0.5965c0.14316,0.09544 0.34199,0.14316 0.5965,0.14316c0.34994,0 0.7317,-0.10339 1.14527,-0.31018c0.41357,-0.20679 0.90668,-0.58059 1.47931,-1.12141c0.44538,0.41357 0.7158,0.92258 0.81124,1.52703c-0.7317,0.85896 -1.58271,1.60657 -2.55301,2.24283c-0.9703,0.63626 -1.91674,0.9544 -2.83933,0.9544c-0.89077,0 -1.57475,-0.12725 -2.05195,-0.38176c-0.4772,-0.25451 -0.78738,-0.67603 -0.93054,-1.26457c-0.14316,-0.58854 -0.15907,-1.37592 -0.04772,-2.36213c0.11135,-0.98621 0.32609,-2.21102 0.64422,-3.67442l1.24071,-5.44005c0.28632,-1.2089 0.46129,-2.20306 0.52492,-2.98249c0.06363,-0.77942 0.04772,-1.39183 -0.04772,-1.83721c-0.09544,-0.44538 -0.26246,-0.75556 -0.50106,-0.93054c-0.2386,-0.17497 -0.53287,-0.26246 -0.88282,-0.26246c-0.4772,0 -1.09755,0.26246 -1.86107,0.78738c-0.76352,0.52492 -1.55089,1.31229 -2.36213,2.36213c-0.81124,1.04983 -1.57475,2.35417 -2.29055,3.91302c-0.7158,1.55885 -1.28048,3.3722 -1.69405,5.44005l-1.19299,6.20357l-4.29478,0l2.19511,-10.73695c0.38176,-1.78154 0.6124,-3.21313 0.69194,-4.29478c0.07953,-1.08165 0.06363,-1.90879 -0.04772,-2.48143c-0.11135,-0.57264 -0.31018,-0.9544 -0.5965,-1.14527c-0.28632,-0.19088 -0.60445,-0.28632 -0.9544,-0.28632c-0.4772,0 -1.09755,0.28632 -1.86107,0.85896c-0.76352,0.57264 -1.54294,1.40773 -2.33827,2.50529c-0.79533,1.09755 -1.55089,2.43371 -2.26669,4.00846c-0.7158,1.57475 -1.26457,3.36424 -1.64633,5.36847l-1.19299,6.20357l-4.3425,0l2.62459,-13.88645z" data-paper-data="{&quot;elementType&quot;:&quot;letter&quot;,&quot;baseline&quot;:46.7,&quot;baselineProportion&quot;:0.9810924369747898,&quot;fontSize&quot;:100}"></path><path d="M263.12531,152.83933c0.19088,-1.11346 0.31813,-1.98037 0.38176,-2.60073c0.06363,-0.62036 0.00795,-1.08165 -0.16702,-1.38387c-0.17497,-0.30223 -0.4772,-0.48515 -0.90668,-0.54878c-0.42948,-0.06363 -1.02597,-0.09544 -1.78949,-0.09544c0,-0.12725 0.00795,-0.39766 0.02386,-0.81124c0.01591,-0.41357 0.10339,-0.74761 0.26246,-1.00212c0.38176,-0.03181 0.86691,-0.1193 1.45545,-0.26246c0.58854,-0.14316 1.19299,-0.31018 1.81335,-0.50106c0.62036,-0.19088 1.2089,-0.38971 1.76563,-0.5965c0.55673,-0.20679 1.01007,-0.40562 1.36001,-0.5965c0.9544,0.31813 1.28843,1.35206 1.00212,3.10178c-0.25451,1.36797 -0.51696,2.49733 -0.78738,3.3881c-0.27041,0.89077 -0.58059,1.73382 -0.93054,2.52915l0.04772,0l0.7158,-1.57475c0.34994,-0.79533 0.88282,-1.63043 1.59861,-2.50529c0.7158,-0.87486 1.51113,-1.67814 2.38599,-2.40985c0.87486,-0.7317 1.79744,-1.33615 2.76775,-1.81335c0.9703,-0.4772 1.88493,-0.7158 2.74389,-0.7158c0.41357,0 0.84305,0.08749 1.28843,0.26246c0.44538,0.17497 0.84305,0.4772 1.19299,0.90668c0.34994,0.42948 0.60445,0.99416 0.76352,1.69405c0.15907,0.69989 0.14316,1.57475 -0.04772,2.62459c-0.12725,0.63626 -0.27041,1.23276 -0.42948,1.78949c-0.15907,0.55673 -0.36585,1.13732 -0.62036,1.74177l0.04772,0l0.7158,-1.57475c0.34994,-0.76352 0.88282,-1.5668 1.59861,-2.40985c0.7158,-0.84305 1.51908,-1.62247 2.40985,-2.33827c0.89077,-0.7158 1.8213,-1.30434 2.79161,-1.76563c0.9703,-0.46129 1.86902,-0.69194 2.69617,-0.69194c0.85896,0 1.54294,0.22269 2.05195,0.66808c0.50901,0.44538 0.86691,1.06574 1.07369,1.86107c0.20679,0.79533 0.27041,1.75768 0.19088,2.88705c-0.07953,1.12937 -0.29427,2.37803 -0.64422,3.746l-1.43159,5.58321c-0.25451,0.98621 -0.44538,1.77358 -0.57264,2.36213c-0.12725,0.58854 -0.19088,1.03393 -0.19088,1.33615c0,0.30223 0.07158,0.50106 0.21474,0.5965c0.14316,0.09544 0.34199,0.14316 0.5965,0.14316c0.34994,0 0.7317,-0.10339 1.14527,-0.31018c0.41357,-0.20679 0.90668,-0.58059 1.47931,-1.12141c0.44538,0.41357 0.7158,0.92258 0.81124,1.52703c-0.7317,0.85896 -1.58271,1.60657 -2.55301,2.24283c-0.9703,0.63626 -1.91674,0.9544 -2.83933,0.9544c-0.89077,0 -1.57475,-0.12725 -2.05195,-0.38176c-0.4772,-0.25451 -0.78738,-0.67603 -0.93054,-1.26457c-0.14316,-0.58854 -0.15907,-1.37592 -0.04772,-2.36213c0.11135,-0.98621 0.32609,-2.21102 0.64422,-3.67442l1.24071,-5.44005c0.28632,-1.2089 0.46129,-2.20306 0.52492,-2.98249c0.06363,-0.77942 0.04772,-1.39183 -0.04772,-1.83721c-0.09544,-0.44538 -0.26246,-0.75556 -0.50106,-0.93054c-0.2386,-0.17497 -0.53287,-0.26246 -0.88282,-0.26246c-0.4772,0 -1.09755,0.26246 -1.86107,0.78738c-0.76352,0.52492 -1.55089,1.31229 -2.36213,2.36213c-0.81124,1.04983 -1.57475,2.35417 -2.29055,3.91302c-0.7158,1.55885 -1.28048,3.3722 -1.69405,5.44005l-1.19299,6.20357l-4.29478,0l2.19511,-10.73695c0.38176,-1.78154 0.6124,-3.21313 0.69194,-4.29478c0.07953,-1.08165 0.06363,-1.90879 -0.04772,-2.48143c-0.11135,-0.57264 -0.31018,-0.9544 -0.5965,-1.14527c-0.28632,-0.19088 -0.60445,-0.28632 -0.9544,-0.28632c-0.4772,0 -1.09755,0.28632 -1.86107,0.85896c-0.76352,0.57264 -1.54294,1.40773 -2.33827,2.50529c-0.79533,1.09755 -1.55089,2.43371 -2.26669,4.00846c-0.7158,1.57475 -1.26457,3.36424 -1.64633,5.36847l-1.19299,6.20357l-4.3425,0l2.62459,-13.88645z" data-paper-data="{&quot;elementType&quot;:&quot;letter&quot;,&quot;baseline&quot;:46.7,&quot;baselineProportion&quot;:0.9810924369747898,&quot;fontSize&quot;:100}"></path></g></g></g></g><g data-paper-data="{&quot;elementType&quot;:&quot;emblem&quot;}" fill="#646a3b" stroke-width="1"><g data-paper-data="{&quot;baselineProportion&quot;:0.988436268068331,&quot;fontSize&quot;:100,&quot;baseline&quot;:68.38181818181818,&quot;elementType&quot;:&quot;word&quot;}"><path d="M46.96064,137.92739c0.59514,0 1.19027,-0.00595 1.78541,-0.01785c0.59514,-0.0119 1.13076,-0.04166 1.60687,-0.08927c0,0.52372 -0.10712,1.03554 -0.32137,1.53545c-0.28567,0.11903 -0.55348,0.27971 -0.80343,0.48206c-0.24996,0.20235 -0.50587,0.49991 -0.76773,0.8927c-0.26186,0.39279 -0.54753,0.90461 -0.857,1.53545c-0.30947,0.63084 -0.67846,1.44618 -1.10695,2.44601c-1.26169,2.90427 -2.55313,5.79663 -3.87434,8.67709c-1.3212,2.88046 -2.73168,5.77282 -4.23142,8.67709c-0.21425,0.11903 -0.4523,0.19044 -0.71416,0.21425c-0.26186,0.02381 -0.51182,0.0119 -0.74987,-0.03571c-0.21425,-1.45213 -0.45825,-2.98758 -0.73202,-4.60635c-0.27376,-1.61877 -0.57133,-3.24944 -0.8927,-4.89202c-0.32137,-1.64258 -0.66655,-3.27325 -1.03554,-4.89202c-0.36898,-1.61877 -0.74392,-3.16613 -1.12481,-4.64206c-1.45213,3.18993 -2.97568,6.36796 -4.57065,9.53408c-1.59497,3.16613 -3.21374,6.27274 -4.85631,9.31983c-0.19044,0.11903 -0.4285,0.19639 -0.71416,0.2321c-0.28567,0.03571 -0.55943,0.02976 -0.82129,-0.01785c-0.54753,-3.73746 -1.08315,-7.1952 -1.60687,-10.37323c-0.52372,-3.17803 -1.02363,-6.08824 -1.49974,-8.73065c-0.14283,-0.80939 -0.26781,-1.45213 -0.37494,-1.92824c-0.10712,-0.47611 -0.22615,-0.83914 -0.35708,-1.0891c-0.13093,-0.24996 -0.27971,-0.4285 -0.44635,-0.53562c-0.16664,-0.10712 -0.38089,-0.2083 -0.64275,-0.30352c-0.14283,-0.4523 -0.17854,-0.95222 -0.10712,-1.49974c0.92841,0.04761 1.69019,0.07737 2.28532,0.08927c0.59514,0.0119 1.15456,0.01785 1.67828,0.01785c0.59514,0 1.26764,-0.00595 2.01751,-0.01785c0.74987,-0.0119 1.44618,-0.04166 2.08893,-0.08927c0,0.26186 -0.0119,0.52372 -0.03571,0.78558c-0.02381,0.26186 -0.09522,0.52372 -0.21425,0.78558c-0.66655,0.11903 -1.19027,0.24996 -1.57116,0.39279c-0.38089,0.14283 -0.6487,0.35708 -0.80343,0.64275c-0.15474,0.28567 -0.22615,0.65465 -0.21425,1.10695c0.0119,0.4523 0.07737,1.04744 0.19639,1.78541c0.16664,0.97602 0.34518,2.02346 0.53562,3.14232c0.19044,1.11886 0.37494,2.25557 0.55348,3.41013c0.17854,1.15456 0.35708,2.32103 0.53562,3.4994c0.17854,1.17837 0.35113,2.31508 0.51777,3.41013c1.59497,-3.09471 3.14827,-6.21322 4.65992,-9.35554c1.51165,-3.14232 3.01734,-6.33225 4.51708,-9.56979c0.40469,-0.19044 0.91651,-0.24996 1.53545,-0.17854c0.38089,1.42833 0.75582,2.92212 1.12481,4.48138c0.36898,1.55926 0.72011,3.14232 1.05339,4.74919c0.33328,1.60687 0.6487,3.21374 0.94627,4.8206c0.29757,1.60687 0.56538,3.17208 0.80343,4.69563c1.04744,-2.04727 2.02941,-4.07668 2.94592,-6.08824c0.91651,-2.01156 1.79136,-4.04098 2.62455,-6.08824c0.38089,-0.92841 0.6487,-1.67828 0.80343,-2.24962c0.15474,-0.57133 0.19044,-1.02959 0.10712,-1.37476c-0.08332,-0.34518 -0.29162,-0.60704 -0.62489,-0.78558c-0.33328,-0.17854 -0.80939,-0.33923 -1.42833,-0.48206c-0.09522,-0.47611 -0.10712,-0.98793 -0.03571,-1.53545c0.47611,0.04761 0.97602,0.07737 1.49974,0.08927c0.52372,0.0119 1.09505,0.01785 1.71399,0.01785z" data-paper-data="{&quot;elementType&quot;:&quot;letter&quot;,&quot;baseline&quot;:68.38181818181818,&quot;baselineProportion&quot;:0.9896624313961355,&quot;fontSize&quot;:100}"></path><path d="M50.38862,160.60208c-0.11903,0.54753 -0.33923,0.97602 -0.6606,1.28549c-0.32137,0.30947 -0.74392,0.46421 -1.26764,0.46421c-0.64275,0 -1.13076,-0.2083 -1.46404,-0.62489c-0.33328,-0.4166 -0.4285,-0.97007 -0.28567,-1.66043c0.09522,-0.47611 0.32732,-0.87485 0.69631,-1.19622c0.36898,-0.32137 0.80343,-0.48206 1.30335,-0.48206c0.54753,0 0.99388,0.2083 1.33906,0.62489c0.34518,0.4166 0.45825,0.94627 0.33923,1.58901z" data-paper-data="{&quot;elementType&quot;:&quot;letter&quot;,&quot;baseline&quot;:10.299999999999997,&quot;baselineProportion&quot;:0.9279279279279281,&quot;fontSize&quot;:100}"></path></g></g></g></svg>