<svg x="0" y="0" width="300" height="300" version="1.1" xmlns="http://www.w3.org/2000/svg" xmlns:xlink="http://www.w3.org/1999/xlink"><g data-paper-data="{&quot;description&quot;:&quot;Logo for Webcomm\n================\n\nThis logo was generated by MarkMaker and is composed of elements designed by others.\n\nThe font is Cinzel Decorative Black designed by Natanael Gama and released under the OFL license via Google Fonts: https://www.google.com/fonts/specimen/Cinzel Decorative. The font includes this copyright statement: Copyright (c) 2012 Natanael Gama (info@ndiscovered.com), with Reserved Font Name 'Cinzel'\n\nMarkMaker uses semantic data from the Princeton University WordNet database http://wordnet.princeton.edu and font descriptions from Google Fonts https://www.google.com/fonts.\n\nThis design is inspired by designs that past users of MarkMaker have liked. As a result, it may be visually similar to past or future designs generated by the system. There is no guarantee that it is unique, original, or suitable in any way for use as a logo.\n\n&quot;}" fill="#4c4f31" stroke="none" stroke-width="1" stroke-linecap="butt" stroke-linejoin="miter" stroke-miterlimit="10" stroke-dasharray="" stroke-dashoffset="0" font-family="sans-serif" font-weight="normal" font-size="12" text-anchor="start" mix-blend-mode="normal"><g data-paper-data="{&quot;elementType&quot;:&quot;logo&quot;}"><g data-paper-data="{&quot;elementType&quot;:&quot;text&quot;}"><g data-paper-data="{&quot;baseline&quot;:94.80000000000001,&quot;elementType&quot;:&quot;row&quot;}"><g data-paper-data="{&quot;baselineProportion&quot;:0.8172413793103448,&quot;fontSize&quot;:100,&quot;baseline&quot;:94.80000000000001,&quot;elementType&quot;:&quot;word&quot;}"><path d="M67.55649,228.73672c0.95955,-0.20084 1.7629,-0.30126 2.41004,-0.30126c0.64714,0 1.24965,0.03347 1.80753,0.10042l0,0.33473c-4.52999,0.33473 -7.56485,3.02371 -9.1046,8.06695l-6.22594,20.25105c-0.31241,1.09344 -0.46862,2.33194 -0.46862,3.71548l-0.33473,0l-7.69874,-14.5272l-6.22594,12.71967c-0.64714,1.36123 -1.27755,2.41004 -1.89121,3.14644c-0.61367,0.7364 -1.14923,1.32775 -1.60669,1.77406c-0.45746,0.4463 -0.9205,0.82566 -1.38912,1.13808c-1.27197,0.80335 -2.41004,1.20502 -3.41423,1.20502c-0.53556,0 -1.1046,-0.05579 -1.70711,-0.16736l0,-0.33473c1.49512,-0.26778 2.81172,-0.99303 3.94979,-2.17573c1.18271,-1.24965 2.03068,-2.3431 2.54393,-3.28033c0.71409,-1.29428 1.29428,-2.43236 1.74059,-3.41423l-6.79498,-18.00837c-0.31241,-0.64714 -0.73082,-1.12692 -1.25523,-1.43933c-0.52441,-0.31241 -1.06555,-0.46862 -1.62343,-0.46862l-0.26778,0l0,-0.33473l12.01674,0l0,0.33473l-0.30126,0c-0.66946,0 -1.11576,0.31241 -1.33891,0.93724c-0.02232,0.13389 -0.03347,0.2901 -0.03347,0.46862c0,0.17852 0.04463,0.40167 0.13389,0.66946l3.64854,9.1046l5.79079,-12.05021l0.30126,0.03347l6.62762,12.25105l3.21339,-11.54812c0.53556,-1.94142 1.3947,-3.62622 2.57741,-5.05439c1.40586,-1.69596 3.04603,-2.74477 4.9205,-3.14644z" data-paper-data="{&quot;elementType&quot;:&quot;letter&quot;,&quot;baseline&quot;:94.80000000000001,&quot;baselineProportion&quot;:0.8367166813768756,&quot;fontSize&quot;:100}"></path><path d="M68.99582,259.83295c0.5802,0 1.07671,-0.20642 1.48954,-0.61925c0.41283,-0.41283 0.6304,-0.90934 0.65272,-1.48954l0,-18.54393c-0.02232,-0.71409 -0.32357,-1.28312 -0.90377,-1.70711c-0.35704,-0.26778 -0.76987,-0.40167 -1.23849,-0.40167l-0.43515,0l0,-0.33473l11.14644,0c0.95955,0 1.81311,-0.0781 2.56067,-0.23431c0.74756,-0.15621 1.22176,-0.27894 1.42259,-0.3682l0,6.8954l-0.33473,0l0,-0.26778c0,-1.3166 -0.3682,-2.35425 -1.1046,-3.11297c-0.7364,-0.75872 -1.7629,-1.16039 -3.0795,-1.20502l-1.17155,0l0,9.33891l4.65272,0c1.07113,-0.02232 1.94142,-0.37378 2.61088,-1.05439c0.66946,-0.68061 1.00418,-1.55649 1.00418,-2.62762l0,-0.13389l0.33473,0l0,9.30544l-0.33473,0l0,-0.16736c0,-1.04881 -0.33473,-1.91353 -1.00418,-2.59414c-0.66946,-0.68061 -1.52859,-1.03208 -2.57741,-1.05439l-4.68619,0l0,9.00418l6.12552,0c1.62901,0 3.06834,-0.53556 4.31799,-1.60669c1.24965,-1.07113 2.1311,-2.55509 2.64435,-4.45188l0.33473,0l-1.27197,7.76569l-21.58996,0l0,-0.33473l0.43515,0z" data-paper-data="{&quot;elementType&quot;:&quot;letter&quot;,&quot;baseline&quot;:71.8,&quot;baselineProportion&quot;:1,&quot;fontSize&quot;:100}"></path><path d="M109.36402,260.70325c-9.17155,0 -13.75732,-3.76011 -13.75732,-11.28033c0,-0.64714 0.03347,-1.30544 0.10042,-1.9749l0.33473,-0.03347c0,4.15063 1.37238,7.25244 4.11715,9.30544l0,-17.57322c-0.02232,-0.60251 -0.24547,-1.09902 -0.66946,-1.48954c-0.42399,-0.39052 -0.91492,-0.58577 -1.4728,-0.58577l-0.43515,0l0,-0.33473l10.30962,0c3.79358,0 6.58298,0.85914 8.3682,2.57741c0.95955,0.93724 1.43933,2.06416 1.43933,3.38075c0,1.45049 -0.47978,2.66667 -1.43933,3.64854c-0.42399,0.46862 -0.90377,0.80335 -1.43933,1.00418c0.11158,0 0.22315,0 0.33473,0c1.51743,0 2.91213,0.52441 4.1841,1.57322c1.27197,1.04881 1.90795,2.46583 1.90795,4.25105c0,1.78522 -0.63598,3.26918 -1.90795,4.45188c-2.16457,2.053 -5.48954,3.0795 -9.9749,3.0795 M110.50209,243.8999l0,-1.00418c-0.06695,-1.45049 -0.35704,-2.53278 -0.87029,-3.24686c-0.51325,-0.71409 -1.38354,-1.11576 -2.61088,-1.20502l0,20.45188c2.00837,-0.02232 3.57043,-0.56346 4.68619,-1.62343c1.11576,-1.05997 1.67364,-2.44909 1.67364,-4.16736c0,-1.89679 -0.52441,-3.26918 -1.57322,-4.11715c-1.04881,-0.84798 -2.26499,-1.27197 -3.64854,-1.27197l0,-0.30126c0.46862,0 0.86471,-0.12831 1.18828,-0.38494c0.32357,-0.25662 0.56346,-0.57462 0.71967,-0.95397c0.2901,-0.82566 0.43515,-1.55091 0.43515,-2.17573z" data-paper-data="{&quot;elementType&quot;:&quot;letter&quot;,&quot;baseline&quot;:70,&quot;baselineProportion&quot;:0.9776536312849162,&quot;fontSize&quot;:100}"></path><path d="M153.78243,246.71161c0.13389,0.89261 0.20084,1.841 0.20084,2.84519c0,1.00418 -0.13389,2.04184 -0.40167,3.11297c-0.84798,3.3696 -2.8675,5.71269 -6.05858,7.02929c-1.51743,0.62483 -3.19107,0.93724 -5.02092,0.93724c-5.02092,0 -8.88703,-1.09344 -11.59833,-3.28033c-2.7113,-2.18689 -4.06695,-5.13808 -4.06695,-8.85356c0,-3.71548 1.40586,-6.6834 4.21757,-8.90377c2.81172,-2.22036 6.62762,-3.33054 11.4477,-3.33054c3.34728,0 6.22594,0.51325 8.63598,1.53975l-0.33473,6.39331l-0.30126,0c-1.16039,-4.17294 -3.77127,-6.25941 -7.83264,-6.25941c-2.70014,0 -4.78661,0.90934 -6.25941,2.72803c-1.4728,1.81869 -2.20921,4.33473 -2.20921,7.54812c0,3.21339 0.76987,5.78522 2.30962,7.71548c1.53975,1.93026 3.76011,2.94003 6.66109,3.02929c3.19107,0 5.71269,-1.03208 7.56485,-3.09623c1.85216,-2.06416 2.77824,-4.84798 2.77824,-8.35146c0,-0.26778 0,-0.53556 0,-0.80335l0.26778,0z" data-paper-data="{&quot;elementType&quot;:&quot;letter&quot;,&quot;baseline&quot;:71.4,&quot;baselineProportion&quot;:0.9807692307692307,&quot;fontSize&quot;:100}"></path><path d="M170.85356,245.67396c-0.69177,-1.16039 -1.03766,-2.38773 -1.03766,-3.68201c0,-1.78522 0.66946,-3.2357 2.00837,-4.35146c0.80335,-0.69177 1.79637,-1.14923 2.97908,-1.37238c0.71409,-0.11158 1.2887,-0.16736 1.72385,-0.16736c0.43515,0 0.89819,0.00558 1.38912,0.01674c0.49093,0.01116 1.2106,0.16179 2.159,0.45188c0.9484,0.2901 1.8689,0.64156 2.76151,1.05439c0.89261,0.41283 1.73501,0.97629 2.5272,1.69038c0.79219,0.71409 1.48954,1.49512 2.09205,2.3431c1.29428,1.82985 1.94142,4.03905 1.94142,6.62762c0,3.74895 -1.38912,6.74477 -4.16736,8.98745c-2.77824,2.24268 -6.45467,3.36402 -11.02929,3.36402c-4.57462,0 -8.26778,-1.12692 -11.0795,-3.38075c-2.81172,-2.25384 -4.21757,-5.22176 -4.21757,-8.90377c0,-3.03487 0.94282,-5.64017 2.82845,-7.8159c1.88563,-2.17573 4.34589,-3.52022 7.38075,-4.03347l0.20084,0.33473c-0.91492,0.95955 -1.64575,2.38215 -2.19247,4.26778c-0.54672,1.88563 -0.82008,3.9219 -0.82008,6.10879c0,3.54812 0.71409,6.39331 2.14226,8.53556c1.42817,2.14226 3.33054,3.21339 5.70711,3.21339c2.37657,0 4.27894,-0.97071 5.70711,-2.91213c1.42817,-1.94142 2.14226,-4.52999 2.14226,-7.76569c0,-2.053 -0.28452,-3.894 -0.85356,-5.52301c-0.56904,-1.62901 -1.35565,-2.84519 -2.35983,-3.64854c-1.00418,-0.80335 -2.06416,-1.20502 -3.17992,-1.20502c-1.45049,0 -2.56625,0.43515 -3.34728,1.30544c-0.91492,1.00418 -1.37238,2.25384 -1.37238,3.74895c0,0.84798 0.12273,1.75174 0.3682,2.7113l-0.40167,0z" data-paper-data="{&quot;elementType&quot;:&quot;letter&quot;,&quot;baseline&quot;:71.9,&quot;baselineProportion&quot;:0.980900409276944,&quot;fontSize&quot;:100}"></path><path d="M189.33054,235.19697c1.58438,-0.84798 3.14086,-1.27197 4.66946,-1.27197c1.52859,0 2.92887,0.32357 4.20084,0.97071c2.54393,1.3166 4.71967,3.47001 6.5272,6.46025l5.99163,9.74059l9.94142,-14.82845l0.30126,0l3.78243,19.58159c0.75872,4.01674 1.88563,6.80614 3.38075,8.3682c1.18271,1.22734 2.68898,1.841 4.51883,1.841c0.15621,0 0.32357,0 0.50209,0l0,0.33473c-1.38354,0.5802 -2.82287,0.87029 -4.31799,0.87029c-2.96792,0 -5.54533,-1.16039 -7.73222,-3.48117c-1.82985,-1.91911 -3.11297,-4.6304 -3.84937,-8.13389l-1.53975,-7.06276l-5.72385,8.50209c-0.37936,0.53556 -0.71409,1.18271 -1.00418,1.94142c-0.2901,0.75872 -0.42399,1.40586 -0.40167,1.94142l-0.30126,0l-8.13389,-13.92469l-1.67364,11.24686l0,0.13389c0,0.35704 0.12831,0.68619 0.38494,0.98745c0.25662,0.30126 0.56346,0.45188 0.9205,0.45188l0.50209,0l0,0.30126l-7.33054,0l0,-0.33473l0.53556,0c0.60251,0 1.1325,-0.1841 1.58996,-0.5523c0.45746,-0.3682 0.74198,-0.86471 0.85356,-1.48954l2.30962,-14.35983c-1.13808,-1.98605 -2.39888,-3.74895 -3.78243,-5.2887c-1.58438,-1.74059 -3.16876,-2.61088 -4.75314,-2.61088c-0.08926,0 -0.17852,0 -0.26778,0l-0.10042,-0.33473z" data-paper-data="{&quot;elementType&quot;:&quot;letter&quot;,&quot;baseline&quot;:78.4,&quot;baselineProportion&quot;:0.7871485943775101,&quot;fontSize&quot;:100}"></path><path d="M226.1841,235.19697c1.58438,-0.84798 3.14086,-1.27197 4.66946,-1.27197c1.52859,0 2.92887,0.32357 4.20084,0.97071c2.54393,1.3166 4.71967,3.47001 6.5272,6.46025l5.99163,9.74059l9.94142,-14.82845l0.30126,0l3.78243,19.58159c0.75872,4.01674 1.88563,6.80614 3.38075,8.3682c1.18271,1.22734 2.68898,1.841 4.51883,1.841c0.15621,0 0.32357,0 0.50209,0l0,0.33473c-1.38354,0.5802 -2.82287,0.87029 -4.31799,0.87029c-2.96792,0 -5.54533,-1.16039 -7.73222,-3.48117c-1.82985,-1.91911 -3.11297,-4.6304 -3.84937,-8.13389l-1.53975,-7.06276l-5.72385,8.50209c-0.37936,0.53556 -0.71409,1.18271 -1.00418,1.94142c-0.2901,0.75872 -0.42399,1.40586 -0.40167,1.94142l-0.30126,0l-8.13389,-13.92469l-1.67364,11.24686l0,0.13389c0,0.35704 0.12831,0.68619 0.38494,0.98745c0.25662,0.30126 0.56346,0.45188 0.9205,0.45188l0.50209,0l0,0.30126l-7.33054,0l0,-0.33473l0.53556,0c0.60251,0 1.1325,-0.1841 1.58996,-0.5523c0.45746,-0.3682 0.74198,-0.86471 0.85356,-1.48954l2.30962,-14.35983c-1.13808,-1.98605 -2.39888,-3.74895 -3.78243,-5.2887c-1.58438,-1.74059 -3.16876,-2.61088 -4.75314,-2.61088c-0.08926,0 -0.17852,0 -0.26778,0l-0.10042,-0.33473z" data-paper-data="{&quot;elementType&quot;:&quot;letter&quot;,&quot;baseline&quot;:78.4,&quot;baselineProportion&quot;:0.7871485943775101,&quot;fontSize&quot;:100}"></path></g></g></g></g><g data-paper-data="{&quot;elementType&quot;:&quot;emblem&quot;}"><g data-paper-data="{&quot;baselineProportion&quot;:0.8367166813768756,&quot;fontSize&quot;:100,&quot;baseline&quot;:94.80000000000001,&quot;elementType&quot;:&quot;word&quot;}"><path d="M225.37947,34.11079c4.37868,-0.91647 8.04455,-1.3747 10.99761,-1.3747c2.95306,0 5.70247,0.15274 8.24821,0.45823l0,1.52745c-20.67144,1.52745 -34.52029,13.79793 -41.54654,36.81146l-28.4105,92.4105c-1.42562,4.98966 -2.13842,10.64121 -2.13842,16.95465l-1.52745,0l-35.13126,-66.29117l-28.4105,58.04296c-2.95306,6.21161 -5.82975,10.99761 -8.63007,14.358c-2.80032,3.36038 -5.24423,6.05887 -7.33174,8.09547c-2.08751,2.0366 -4.20048,3.7677 -6.3389,5.19332c-5.8043,3.66587 -10.99761,5.49881 -15.57995,5.49881c-2.44391,0 -5.04057,-0.25457 -7.78998,-0.76372l0,-1.52745c6.82259,-1.22196 12.83055,-4.53142 18.02387,-9.9284c5.39698,-5.70247 9.26651,-10.69212 11.60859,-14.96897c3.25855,-5.90613 5.90613,-11.09944 7.94272,-15.57995l-31.00716,-82.17661c-1.42562,-2.95306 -3.33492,-5.1424 -5.72792,-6.56802c-2.393,-1.42562 -4.86237,-2.13842 -7.40811,-2.13842l-1.22196,0l0,-1.52745l54.83532,0l0,1.52745l-1.3747,0c-3.05489,0 -5.09149,1.42562 -6.10979,4.27685c-0.10183,0.61098 -0.15274,1.32379 -0.15274,2.13842c0,0.81464 0.20366,1.83294 0.61098,3.05489l16.64916,41.54654l26.42482,-54.98807l1.3747,0.15274l30.24344,55.90453l14.66348,-52.6969c2.44391,-8.85919 6.36436,-16.54733 11.76134,-23.06444c6.41527,-7.73906 13.89976,-12.52506 22.45346,-14.358z" data-paper-data="{&quot;elementType&quot;:&quot;letter&quot;,&quot;baseline&quot;:94.80000000000001,&quot;baselineProportion&quot;:0.8367166813768756,&quot;fontSize&quot;:100}"></path><path d="M241.95227,175.62869c0,0 -0.67462,0.67462 -2.02387,2.02387c-1.34924,1.34924 -3.90772,2.02387 -7.67542,2.02387c-3.7677,0 -7.0008,-1.34924 -9.69928,-4.04773c-2.69849,-2.69849 -4.04773,-5.93158 -4.04773,-9.69928c0,-3.7677 1.34924,-7.0008 4.04773,-9.69928c2.69849,-2.69849 5.93158,-4.04773 9.69928,-4.04773c3.7677,0 7.0008,1.34924 9.69928,4.04773c2.69849,2.69849 4.04773,5.93158 4.04773,9.69928c0,3.7677 -1.34924,7.0008 -4.04773,9.69928z" data-paper-data="{&quot;elementType&quot;:&quot;letter&quot;,&quot;baseline&quot;:16.599999999999994,&quot;baselineProportion&quot;:0.9222222222222219,&quot;fontSize&quot;:100}"></path></g></g></g></svg>