<svg x="0" y="0" width="300" height="300" version="1.1" xmlns="http://www.w3.org/2000/svg" xmlns:xlink="http://www.w3.org/1999/xlink"><defs><linearGradient x1="158.39556" y1="94.13571" x2="158.39556" y2="205.86429" gradientUnits="userSpaceOnUse" id="color-1"><stop offset="0" stop-color="#0a0909"></stop><stop offset="1" stop-color="#100e0e"></stop></linearGradient></defs><g data-paper-data="{&quot;description&quot;:&quot;Logo for Webcomm\n================\n\nThis logo was generated by MarkMaker and is composed of elements designed by others.\n\nThe font is Junge designed by Cyreal and released under the OFL license via Google Fonts: https://www.google.com/fonts/specimen/Junge. The font includes this copyright statement: Copyright (c) 2011, Cyreal (www.cyreal.org a@cyreal.org) with Reserved Font Name \\\&quot;Junge\\\&quot;. This Font Software is licensed under the SIL Open Font License, Version 1.1. This license is available with a FAQ at\n\nThe symbol is 'front end' designed by Ivo Ilic and released into the public domain at the Noun Project: https://thenounproject.com/term/front-end/133743.\n\nMarkMaker uses semantic data from the Princeton University WordNet database http://wordnet.princeton.edu and font descriptions from Google Fonts https://www.google.com/fonts.\n\nThis design is inspired by designs that past users of MarkMaker have liked. As a result, it may be visually similar to past or future designs generated by the system. There is no guarantee that it is unique, original, or suitable in any way for use as a logo.\n\n&quot;}" fill="url(#color-1)" stroke="none" stroke-width="1" stroke-linecap="butt" stroke-linejoin="miter" stroke-miterlimit="none" stroke-dasharray="" stroke-dashoffset="0" font-family="none" font-weight="none" font-size="none" text-anchor="start" mix-blend-mode="normal"><g data-paper-data="{&quot;elementType&quot;:&quot;logo&quot;}" stroke-miterlimit="10" font-family="sans-serif" font-weight="normal" font-size="12"><g data-paper-data="{&quot;elementType&quot;:&quot;text&quot;}"><g data-paper-data="{&quot;baseline&quot;:73.193359375,&quot;elementType&quot;:&quot;row&quot;}"><g data-paper-data="{&quot;baselineProportion&quot;:0.9733766233766233,&quot;fontSize&quot;:100,&quot;baseline&quot;:73.193359375,&quot;elementType&quot;:&quot;word&quot;}"><path d="M167.90001,143.55249c0.33665,0.02405 0.5651,0.09318 0.68533,0.2074l2.97577,9.41427c0.18636,0.60718 0.29157,1.10013 0.31561,1.47887l0.10821,0l2.99381,-10.11763c0.03607,-0.22844 -0.06463,-0.38775 -0.30209,-0.47793c-0.23746,-0.09017 -0.6177,-0.11122 -1.14071,-0.06312l-0.0541,-0.16231c0.7755,-0.22243 1.57506,-0.33365 2.39865,-0.33365c0.04208,0 0.07364,0.01954 0.09468,0.05861c0.02104,0.03908 0.02555,0.07965 0.01353,0.12174c-0.48093,1.7013 -1.84558,6.05976 -4.09394,13.07537l-0.63122,-0.18035l-3.30942,-10.50538l0,0.03607l-0.10821,0l-3.38156,10.64966l-0.62221,-0.18035l-3.3996,-11.01036c-0.12624,-0.40879 -0.28405,-0.70637 -0.47342,-0.89273c-0.18937,-0.18636 -0.39376,-0.27954 -0.61319,-0.27954c-0.21943,0 -0.4118,0.00751 -0.57712,0.02254c-0.16532,0.01503 -0.26301,0.02254 -0.29307,0.02254l-0.09017,-0.18035c1.00996,-0.50498 1.91472,-0.75747 2.71427,-0.75747l2.76837,9.00848c0.21642,0.73342 0.33365,1.39471 0.35168,1.98385l0.10821,0l3.56191,-10.93822z" data-paper-data="{&quot;elementType&quot;:&quot;letter&quot;,&quot;baseline&quot;:70.80078125,&quot;baselineProportion&quot;:0.9863945578231292,&quot;fontSize&quot;:100}"></path><path d="M181.2736,156.02369l3.17416,-0.09919c0.43885,-0.01202 0.80857,-0.06312 1.10915,-0.1533c0.30058,-0.09017 0.55908,-0.21792 0.7755,-0.38324c0.21642,-0.16532 0.40579,-0.36972 0.5681,-0.61319c0.16231,-0.24347 0.32463,-0.52452 0.48694,-0.84314l0.26151,0.10821l-0.89273,2.40767l-0.14428,0.12624l-6.55572,0c-0.11422,-0.24648 -0.17133,-0.54105 -0.17133,-0.88371l0,-9.5856c0,-0.39677 -0.01803,-0.7229 -0.0541,-0.9784c-0.03607,-0.2555 -0.1022,-0.45989 -0.19838,-0.61319c-0.09619,-0.1533 -0.22995,-0.26 -0.40128,-0.32012c-0.17133,-0.06012 -0.39226,-0.09017 -0.66279,-0.09017c-0.04208,0 -0.08567,0 -0.13075,0c-0.04509,0 -0.09168,0.00301 -0.13977,0.00902l-0.03607,-0.26151c1.71332,-0.27052 3.60099,-0.40579 5.66299,-0.40579c1.05204,0 2.15518,0.03607 3.30942,0.10821l0.06312,0.1533l-0.85666,2.24536l-0.28856,-0.09017c0.04809,-0.22844 0.08416,-0.43885 0.10821,-0.63122c0.02405,-0.19237 0.03607,-0.38024 0.03607,-0.56359c0,-0.18336 -0.02405,-0.35619 -0.07214,-0.51851c-0.45087,-0.04208 -0.89424,-0.07364 -1.33008,-0.09468c-0.43585,-0.02104 -0.87019,-0.03156 -1.30303,-0.03156c-0.78753,0 -1.56003,0.03607 -2.3175,0.10821l0,5.09489l4.93257,-0.27052l0.09017,0.09919l-0.42382,0.73943c-0.27052,-0.01202 -0.54406,-0.02104 -0.82059,-0.02705c-0.27654,-0.00601 -0.55908,-0.00902 -0.84764,-0.00902c-0.46891,0 -0.94684,0.00902 -1.43378,0.02705c-0.48694,0.01803 -0.98591,0.04208 -1.4969,0.07214l0,6.16797z" data-paper-data="{&quot;elementType&quot;:&quot;letter&quot;,&quot;baseline&quot;:71.09375,&quot;baselineProportion&quot;:1,&quot;fontSize&quot;:100}"></path><path d="M196.15312,156.51965l-2.11911,0.07214c-0.32463,0.01202 -0.61169,0.03306 -0.86117,0.06312c-0.24948,0.03006 -0.4614,0.06312 -0.63573,0.09919l-0.0541,-0.09017c0.12023,-0.17434 0.18035,-0.49296 0.18035,-0.95585l0,-9.51346c0,-0.40879 -0.01803,-0.74845 -0.0541,-1.01898c-0.03607,-0.27052 -0.1037,-0.48544 -0.20289,-0.64475c-0.09919,-0.15931 -0.23445,-0.27052 -0.40579,-0.33365c-0.17133,-0.06312 -0.35619,-0.09468 -0.55458,-0.09468c-0.19838,0 -0.32162,0.00301 -0.36972,0.00902l-0.03607,-0.26151c0.72741,-0.09619 1.4443,-0.18035 2.15067,-0.25249c0.70637,-0.07214 1.1858,-0.11272 1.43829,-0.12174c0.25249,-0.00902 0.49596,-0.01353 0.73042,-0.01353c0.65527,0 1.2369,0.04058 1.74489,0.12174c0.50799,0.08116 0.93481,0.21492 1.28048,0.40128c0.34567,0.18636 0.60868,0.42833 0.78903,0.72591c0.18035,0.29758 0.27052,0.66279 0.27052,1.09563c0,0.37272 -0.07214,0.72741 -0.21642,1.06406c-0.14428,0.33665 -0.34417,0.64926 -0.59966,0.93782c-0.2555,0.28856 -0.55458,0.55007 -0.89724,0.78452c-0.34266,0.23445 -0.71238,0.43284 -1.10915,0.59515l0,0.07214c0.46891,0.06012 0.9273,0.16532 1.37517,0.31561c0.44787,0.15029 0.84614,0.3592 1.19482,0.62672c0.34868,0.26752 0.62822,0.59816 0.83863,0.99192c0.21041,0.39376 0.31561,0.86418 0.31561,1.41124c0,0.64325 -0.12174,1.20985 -0.36521,1.6998c-0.24347,0.48995 -0.56359,0.89874 -0.96036,1.22638c-0.39677,0.32764 -0.84614,0.57411 -1.34812,0.73943c-0.50197,0.16532 -1.00846,0.24798 -1.51945,0.24798 M194.05204,144.73378l0,11.27187l1.55101,0.07214c0.99794,0.04809 1.802,-0.19388 2.41218,-0.72591c0.61018,-0.53203 0.91528,-1.34511 0.91528,-2.43923c0,-0.57111 -0.11122,-1.07759 -0.33365,-1.51945c-0.22243,-0.44186 -0.53053,-0.79504 -0.92429,-1.05956c-0.39376,-0.26451 -0.84314,-0.4629 -1.34812,-0.59515c-0.50498,-0.13226 -1.05805,-0.19237 -1.65922,-0.18035l0,-0.38775c0.57111,-0.01202 1.10915,-0.13526 1.61413,-0.36972c0.50498,-0.23445 0.9273,-0.59065 1.26696,-1.06857c0.33966,-0.47793 0.50949,-1.0325 0.50949,-1.66373c0,-0.54706 -0.11272,-0.96788 -0.33816,-1.26245c-0.22544,-0.29457 -0.52452,-0.50197 -0.89724,-0.62221c-0.37272,-0.12023 -0.80256,-0.17434 -1.2895,-0.16231c-0.48694,0.01202 -0.99192,0.0541 -1.51494,0.12624c-0.00601,0 -0.01202,0 -0.01803,0c0.03607,0.19838 0.0541,0.39376 0.0541,0.58614z" data-paper-data="{&quot;elementType&quot;:&quot;letter&quot;,&quot;baseline&quot;:70.99609375,&quot;baselineProportion&quot;:0.9864314789687924,&quot;fontSize&quot;:100}"></path><path d="M212.99845,144.4362c-0.96788,-0.48694 -1.92974,-0.73042 -2.8856,-0.73042c-0.75747,0 -1.43979,0.12174 -2.04697,0.36521c-0.60718,0.24347 -1.12568,0.62672 -1.55552,1.14973c-0.42983,0.52301 -0.75897,1.19031 -0.98742,2.00188c-0.22844,0.81157 -0.34266,1.78546 -0.34266,2.92167c0,0.57712 0.05711,1.13019 0.17133,1.65922c0.11422,0.52903 0.27804,1.02349 0.49145,1.48338c0.21341,0.45989 0.47492,0.8777 0.78452,1.25343c0.3096,0.37573 0.65978,0.69735 1.05054,0.96487c0.39076,0.26752 0.81909,0.47492 1.28499,0.62221c0.4659,0.14729 0.96036,0.22093 1.48338,0.22093c0.37873,0 0.7229,-0.01803 1.0325,-0.0541c0.3096,-0.03607 0.60267,-0.1007 0.87921,-0.19388c0.27654,-0.09318 0.55007,-0.22243 0.82059,-0.38775c0.27052,-0.16532 0.55908,-0.37723 0.86568,-0.63573l0.36972,0.42382c-0.35469,0.26451 -0.69735,0.48694 -1.02799,0.66729c-0.33064,0.18035 -0.6688,0.32914 -1.01447,0.44637c-0.34567,0.11723 -0.71088,0.20139 -1.09563,0.25249c-0.38475,0.0511 -0.80857,0.07665 -1.27147,0.07665c-0.91377,0 -1.75991,-0.16532 -2.53843,-0.49596c-0.77851,-0.33064 -1.45031,-0.79805 -2.01541,-1.40222c-0.5651,-0.60417 -1.00695,-1.33459 -1.32557,-2.19125c-0.31862,-0.85666 -0.47793,-1.80801 -0.47793,-2.85404c0,-1.07008 0.17584,-2.03345 0.52752,-2.89011c0.35168,-0.85666 0.83712,-1.58558 1.45633,-2.18674c0.6192,-0.60117 1.34962,-1.06256 2.19125,-1.38419c0.84163,-0.32162 1.7524,-0.48244 2.7323,-0.48244c1.2384,0 2.4227,0.30659 3.55289,0.91978c-0.19237,0.97389 -0.48995,1.87865 -0.89273,2.71427l-0.23445,-0.12624c0.07214,-0.43885 0.10821,-0.8747 0.10821,-1.30754c0,-0.38475 -0.03006,-0.65828 -0.09017,-0.82059z" data-paper-data="{&quot;elementType&quot;:&quot;letter&quot;,&quot;baseline&quot;:73.193359375,&quot;baselineProportion&quot;:0.9733766233766233,&quot;fontSize&quot;:100}"></path><path d="M224.20785,143.0926c2.0079,0 3.55289,0.63423 4.63499,1.90269c1.0821,1.26846 1.62315,3.02387 1.62315,5.26622c0,0.94984 -0.16833,1.84258 -0.50498,2.6782c-0.33665,0.83562 -0.79053,1.545 -1.36164,2.12813c-0.57111,0.58313 -1.24291,1.04152 -2.01541,1.37517c-0.7725,0.33365 -1.58257,0.50047 -2.43022,0.50047c-0.88973,0 -1.71633,-0.15781 -2.47981,-0.47342c-0.76348,-0.31561 -1.42627,-0.76498 -1.98836,-1.34812c-0.56209,-0.58313 -1.00245,-1.31806 -1.32106,-2.20478c-0.31862,-0.88672 -0.47793,-1.87113 -0.47793,-2.95323c0,-0.95585 0.16983,-1.86061 0.50949,-2.71427c0.33966,-0.85366 0.79354,-1.58257 1.36164,-2.18674c0.5681,-0.60417 1.23991,-1.0836 2.01541,-1.43829c0.7755,-0.35469 1.58708,-0.53203 2.43472,-0.53203 M219.40153,149.87376c0,0.88371 0.09468,1.69379 0.28405,2.43022c0.18937,0.73643 0.44336,1.35713 0.76198,1.86211c0.31862,0.50498 0.69284,0.93181 1.12268,1.28048c0.42983,0.34868 0.88221,0.60267 1.35713,0.76198c0.47492,0.15931 0.96788,0.23896 1.47887,0.23896c0.73943,0 1.40222,-0.16231 1.98836,-0.48694c0.58614,-0.32463 1.06256,-0.76799 1.42927,-1.33008c0.36671,-0.56209 0.64625,-1.20684 0.83863,-1.93425c0.19237,-0.72741 0.28856,-1.50893 0.28856,-2.34455c0,-1.08811 -0.13677,-2.06801 -0.4103,-2.9397c-0.27353,-0.87169 -0.64175,-1.57656 -1.10464,-2.1146c-0.4629,-0.53804 -0.98742,-0.94834 -1.57355,-1.23089c-0.58614,-0.28255 -1.20684,-0.42382 -1.86211,-0.42382c-0.73943,0 -1.40523,0.16983 -1.99738,0.50949c-0.59215,0.33966 -1.07459,0.79805 -1.44731,1.37517c-0.37272,0.57712 -0.65828,1.2369 -0.85666,1.97934c-0.19838,0.74244 -0.29758,1.53147 -0.29758,2.36709z" data-paper-data="{&quot;elementType&quot;:&quot;letter&quot;,&quot;baseline&quot;:72.998046875,&quot;baselineProportion&quot;:0.9733072916666666,&quot;fontSize&quot;:100}"></path><path d="M246.12102,144.03042c0.43284,-0.31862 0.90175,-0.52001 1.40673,-0.60417l1.19933,11.52436c0.03607,0.48694 0.16231,0.83111 0.37873,1.0325c0.21642,0.20139 0.60718,0.32313 1.17227,0.36521l-0.0541,0.22544c-0.69134,-0.01803 -1.22939,-0.01202 -1.61413,0.01803c-0.38475,0.03006 -0.79354,0.11723 -1.22638,0.26151l-0.06312,-0.09919c0.11422,-0.19237 0.14729,-0.51099 0.09919,-0.95585l-1.05505,-10.48735l-4.63499,11.61454l-0.63122,-0.29758c-0.02405,-0.42683 -0.19538,-1.031 -0.514,-1.81252l-4.121,-9.11669l-1.05505,9.62167c-0.02405,0.21041 -0.00751,0.38024 0.0496,0.50949c0.05711,0.12925 0.19538,0.24948 0.4148,0.3607c0.21943,0.11122 0.54556,0.20891 0.9784,0.29307l-0.03607,0.16231c-0.98591,-0.07214 -1.75541,-0.09619 -2.30848,-0.07214c-0.04809,-0.04809 -0.08416,-0.10821 -0.10821,-0.18035l1.36164,-11.8039c-0.16833,-0.13827 -0.37573,-0.21191 -0.62221,-0.22093c-0.24648,-0.00902 -0.48093,0.01353 -0.70336,0.06763l-0.10821,-0.18035c0.89574,-0.50498 1.71332,-0.75747 2.45276,-0.75747c0.14428,0.32463 0.95435,2.12813 2.43022,5.4105c1.47586,3.28237 2.35206,5.21512 2.6286,5.79825l4.28331,-10.67672z" data-paper-data="{&quot;elementType&quot;:&quot;letter&quot;,&quot;baseline&quot;:71.19140625,&quot;baselineProportion&quot;:0.9739478957915831,&quot;fontSize&quot;:100}"></path><path d="M265.84293,144.03042c0.43284,-0.31862 0.90175,-0.52001 1.40673,-0.60417l1.19933,11.52436c0.03607,0.48694 0.16231,0.83111 0.37873,1.0325c0.21642,0.20139 0.60718,0.32313 1.17227,0.36521l-0.0541,0.22544c-0.69134,-0.01803 -1.22939,-0.01202 -1.61413,0.01803c-0.38475,0.03006 -0.79354,0.11723 -1.22638,0.26151l-0.06312,-0.09919c0.11422,-0.19237 0.14729,-0.51099 0.09919,-0.95585l-1.05505,-10.48735l-4.63499,11.61454l-0.63122,-0.29758c-0.02405,-0.42683 -0.19538,-1.031 -0.514,-1.81252l-4.121,-9.11669l-1.05505,9.62167c-0.02405,0.21041 -0.00751,0.38024 0.0496,0.50949c0.05711,0.12925 0.19538,0.24948 0.4148,0.3607c0.21943,0.11122 0.54556,0.20891 0.9784,0.29307l-0.03607,0.16231c-0.98591,-0.07214 -1.75541,-0.09619 -2.30848,-0.07214c-0.04809,-0.04809 -0.08416,-0.10821 -0.10821,-0.18035l1.36164,-11.8039c-0.16833,-0.13827 -0.37573,-0.21191 -0.62221,-0.22093c-0.24648,-0.00902 -0.48093,0.01353 -0.70336,0.06763l-0.10821,-0.18035c0.89574,-0.50498 1.71332,-0.75747 2.45276,-0.75747c0.14428,0.32463 0.95435,2.12813 2.43022,5.4105c1.47586,3.28237 2.35206,5.21512 2.6286,5.79825l4.28331,-10.67672z" data-paper-data="{&quot;elementType&quot;:&quot;letter&quot;,&quot;baseline&quot;:71.19140625,&quot;baselineProportion&quot;:0.9739478957915831,&quot;fontSize&quot;:100}"></path></g></g></g></g><g data-paper-data="{&quot;elementType&quot;:&quot;emblem&quot;}" stroke="none" stroke-miterlimit="4" font-family="'Helvetica Neue', Helvetica, Arial, sans-serif" font-weight="bold" font-size="24"><g><path d="M141.60444,94.13571c-1.11729,0 -2.607,0 -3.72429,0c-30.91157,0 -55.86429,24.95272 -55.86429,55.86429c0,30.91157 24.95272,55.86429 55.86429,55.86429c1.11729,0 2.607,0 3.72429,0 M106.22372,131.37857c-1.11729,4.84157 -1.48971,9.68314 -1.86214,14.89714l-14.773,0c0.37243,-5.214 1.48971,-10.05557 3.72429,-14.89714z M141.60444,146.27571l0,-14.89714 M141.60444,123.93l0,0l0,-21.97329 M120.87258,114.24685c2.607,-4.09671 5.58643,-7.32443 8.56586,-9.68314c1.48971,-1.11729 3.35186,-1.86214 5.214,-2.607l0,21.97329l-18.249,0c1.11729,-3.35186 2.607,-6.70371 4.46914,-9.68314z M134.28001,131.37857l0,14.89714l-22.34572,0c0.37243,-5.214 0.74486,-10.05557 1.86214,-14.89714z M93.31286,168.74557c-1.86214,-4.84157 -3.35186,-9.68314 -3.72429,-14.89714l14.89714,0c0.37243,5.214 0.74486,10.05557 1.86214,14.89714z M111.93429,153.72429l22.34572,0l0,14.89714l-20.11114,0c-1.11729,-4.84157 -1.98629,-9.68314 -2.23457,-14.89714z M134.28001,176.07l0,21.97329c-1.86214,-0.37243 -3.35186,-1.48971 -5.214,-2.607c-2.97943,-2.23457 -5.95886,-5.58643 -8.56586,-9.68314c-1.86214,-2.97943 -3.35186,-5.95886 -4.46914,-9.68314l18.249,0z M141.60444,198.04329l0,-21.97329 M141.60444,168.74557l0,-15.02129 M103.61672,115.86071c4.09671,-4.09671 8.56586,-7.07614 13.28329,-9.31071c-3.72429,4.84157 -6.70371,10.80043 -8.93829,17.50414l-11.17286,0c2.11043,-2.97943 4.345,-5.58643 6.82786,-8.19343z M97.03715,176.07l11.17286,0c2.23457,6.70371 5.214,12.66257 8.93829,17.50414c-4.84157,-2.23457 -9.31071,-5.58643 -13.40743,-9.31071c-2.607,-2.607 -4.84157,-5.214 -6.70371,-8.19343z"></path></g><path d="M74.69143,146.27571l-28.80114,0l0,-12.166l-15.89029,15.76614l0.12414,0.12414l-0.12414,0.12414l15.89029,15.89029l0,-12.29014l28.80114,0z"></path></g></g></svg>